<svg width="30" height="26" viewBox="0 0 30 26" fill="none" xmlns="http://www.w3.org/2000/svg">
<path d="M3.21716 25.7373C2.33244 25.7373 1.57534 25.4225 0.945847 24.793C0.316356 24.1635 0.00107511 23.4059 2.72641e-06 22.5201C-0.00106966 21.6343 0.314211 20.8772 0.945847 20.2488C1.57748 19.6204 2.33459 19.3051 3.21716 19.303C4.09973 19.3008 4.85737 19.6161 5.49008 20.2488C6.12279 20.8815 6.43754 21.6386 6.43432 22.5201C6.4311 23.4016 6.11636 24.1593 5.49008 24.793C4.86381 25.4268 4.10617 25.7416 3.21716 25.7373ZM3.21716 16.0858C2.33244 16.0858 1.57534 15.7711 0.945847 15.1416C0.316356 14.5121 0.00107511 13.7544 2.72641e-06 12.8686C-0.00106966 11.9829 0.314211 11.2257 0.945847 10.5973C1.57748 9.96891 2.33459 9.65363 3.21716 9.65148C4.09973 9.64934 4.85737 9.96462 5.49008 10.5973C6.12279 11.23 6.43754 11.9871 6.43432 12.8686C6.4311 13.7501 6.11636 14.5078 5.49008 15.1416C4.86381 15.7753 4.10617 16.0901 3.21716 16.0858ZM3.21716 6.43433C2.33244 6.43433 1.57534 6.11958 0.945847 5.49009C0.316356 4.8606 0.00107511 4.10296 2.72641e-06 3.21717C-0.00106966 2.33138 0.314211 1.57427 0.945847 0.945855C1.57748 0.317437 2.33459 0.00215564 3.21716 1.08688e-05C4.09973 -0.0021339 4.85737 0.313147 5.49008 0.945855C6.12279 1.57856 6.43754 2.33567 6.43432 3.21717C6.4311 4.09867 6.11636 4.85631 5.49008 5.49009C4.86381 6.12387 4.10617 6.43862 3.21716 6.43433ZM12.8686 6.43433C11.9839 6.43433 11.2268 6.11958 10.5973 5.49009C9.96783 4.8606 9.65255 4.10296 9.65148 3.21717C9.6504 2.33138 9.96569 1.57427 10.5973 0.945855C11.229 0.317437 11.9861 0.00215564 12.8686 1.08688e-05C13.7512 -0.0021339 14.5088 0.313147 15.1416 0.945855C15.7743 1.57856 16.089 2.33567 16.0858 3.21717C16.0826 4.09867 15.7678 4.85631 15.1416 5.49009C14.5153 6.12387 13.7576 6.43862 12.8686 6.43433ZM22.5201 6.43433C21.6354 6.43433 20.8783 6.11958 20.2488 5.49009C19.6193 4.8606 19.304 4.10296 19.303 3.21717C19.3019 2.33138 19.6172 1.57427 20.2488 0.945855C20.8804 0.317437 21.6375 0.00215564 22.5201 1.08688e-05C23.4027 -0.0021339 24.1603 0.313147 24.793 0.945855C25.4257 1.57856 25.7405 2.33567 25.7373 3.21717C25.734 4.09867 25.4193 4.85631 24.793 5.49009C24.1668 6.12387 23.4091 6.43862 22.5201 6.43433ZM12.8686 16.0858C11.9839 16.0858 11.2268 15.7711 10.5973 15.1416C9.96783 14.5121 9.65255 13.7544 9.65148 12.8686C9.6504 11.9829 9.96569 11.2257 10.5973 10.5973C11.229 9.96891 11.9861 9.65363 12.8686 9.65148C13.7512 9.64934 14.5088 9.96462 15.1416 10.5973C15.7743 11.23 16.089 11.9871 16.0858 12.8686C16.0826 13.7501 15.7678 14.5078 15.1416 15.1416C14.5153 15.7753 13.7576 16.0901 12.8686 16.0858ZM14.4772 25.7373V20.7909L25.0536 10.2547L30 15.1609L19.4236 25.7373H14.4772ZM16.8901 23.3244H18.4182L23.2842 18.4182L22.5603 17.6542L21.7962 16.9303L16.8901 21.7963V23.3244ZM22.5603 17.6542L21.7962 16.9303L23.2842 18.4182L22.5603 17.6542Z" fill="#F8E7BF"/>
</svg>
