<svg width="28" height="25" viewBox="0 0 28 25" fill="none" xmlns="http://www.w3.org/2000/svg">
<path d="M3.09008 24.8374C2.26723 24.8374 1.56307 24.5446 0.977604 23.9592C0.392134 23.3737 0.0989003 22.669 0.0979029 21.8452C0.0969055 21.0213 0.390139 20.3172 0.977604 19.7327C1.56507 19.1482 2.26923 18.855 3.09008 18.853C3.91094 18.851 4.6156 19.1442 5.20406 19.7327C5.79252 20.3212 6.08526 21.0253 6.08227 21.8452C6.07927 22.665 5.78654 23.3697 5.20406 23.9592C4.62158 24.5486 3.91692 24.8414 3.09008 24.8374ZM3.09008 15.8608C2.26723 15.8608 1.56307 15.5681 0.977604 14.9826C0.392134 14.3971 0.0989003 13.6925 0.0979029 12.8686C0.0969055 12.0448 0.390139 11.3406 0.977604 10.7562C1.56507 10.1717 2.26923 9.87846 3.09008 9.87646C3.91094 9.87447 4.6156 10.1677 5.20406 10.7562C5.79252 11.3446 6.08526 12.0488 6.08227 12.8686C6.07927 13.6885 5.78654 14.3932 5.20406 14.9826C4.62158 15.5721 3.91692 15.8648 3.09008 15.8608ZM3.09008 6.88428C2.26723 6.88428 1.56307 6.59154 0.977604 6.00607C0.392134 5.4206 0.0989003 4.71595 0.0979029 3.8921C0.0969055 3.06825 0.390139 2.36409 0.977604 1.77962C1.56507 1.19514 2.26923 0.901911 3.09008 0.899916C3.91094 0.897921 4.6156 1.19115 5.20406 1.77962C5.79252 2.36808 6.08526 3.07224 6.08227 3.8921C6.07927 4.71196 5.78654 5.41661 5.20406 6.00607C4.62158 6.59553 3.91692 6.88827 3.09008 6.88428ZM12.0666 6.88428C11.2438 6.88428 10.5396 6.59154 9.95415 6.00607C9.36868 5.4206 9.07545 4.71595 9.07445 3.8921C9.07345 3.06825 9.36669 2.36409 9.95415 1.77962C10.5416 1.19514 11.2458 0.901911 12.0666 0.899916C12.8875 0.897921 13.5921 1.19115 14.1806 1.77962C14.7691 2.36808 15.0618 3.07224 15.0588 3.8921C15.0558 4.71196 14.7631 5.41661 14.1806 6.00607C13.5981 6.59553 12.8935 6.88827 12.0666 6.88428ZM21.0432 6.88428C20.2203 6.88428 19.5162 6.59154 18.9307 6.00607C18.3452 5.4206 18.052 4.71595 18.051 3.8921C18.05 3.06825 18.3432 2.36409 18.9307 1.77962C19.5182 1.19514 20.2223 0.901911 21.0432 0.899916C21.864 0.897921 22.5687 1.19115 23.1572 1.77962C23.7456 2.36808 24.0383 3.07224 24.0354 3.8921C24.0324 4.71196 23.7396 5.41661 23.1572 6.00607C22.5747 6.59553 21.87 6.88827 21.0432 6.88428ZM12.0666 15.8608C11.2438 15.8608 10.5396 15.5681 9.95415 14.9826C9.36868 14.3971 9.07545 13.6925 9.07445 12.8686C9.07345 12.0448 9.36669 11.3406 9.95415 10.7562C10.5416 10.1717 11.2458 9.87846 12.0666 9.87646C12.8875 9.87447 13.5921 10.1677 14.1806 10.7562C14.7691 11.3446 15.0618 12.0488 15.0588 12.8686C15.0558 13.6885 14.7631 14.3932 14.1806 14.9826C13.5981 15.5721 12.8935 15.8648 12.0666 15.8608ZM13.5627 24.8374V20.2369L23.3995 10.4375L28 15.0006L18.1632 24.8374H13.5627ZM15.8069 22.5932H17.2281L21.7538 18.0302L21.0806 17.3195L20.3699 16.6463L15.8069 21.1719V22.5932ZM21.0806 17.3195L20.3699 16.6463L21.7538 18.0302L21.0806 17.3195Z" fill="black"/>
</svg>
