<svg width="26" height="26" viewBox="0 0 26 26" fill="none" xmlns="http://www.w3.org/2000/svg">
<g clip-path="url(#clip0_31_266)">
<path d="M7.1012 22.5228V11.7787H9.00596C9.14485 11.7787 9.28374 11.7938 9.42263 11.824C9.56152 11.8541 9.70041 11.8886 9.8393 11.9275L18.0833 14.993C18.3611 15.0922 18.5845 15.2708 18.7536 15.5287C18.9226 15.7867 19.0068 16.0545 19.006 16.3323C19.006 16.749 18.8619 17.0863 18.5738 17.3442C18.2857 17.6021 17.9536 17.7311 17.5774 17.7311H14.4524C14.3532 17.7311 14.279 17.7263 14.2298 17.7168C14.1806 17.7073 14.1159 17.6823 14.0357 17.6418L12.131 16.8978L11.7441 18.0585L14.0357 18.8621C14.0754 18.8819 14.1349 18.897 14.2143 18.9073C14.2937 18.9176 14.3631 18.9224 14.4226 18.9216H22.5774C23.2123 18.9216 23.7679 19.1498 24.2441 19.6061C24.7202 20.0625 24.9583 20.6279 24.9583 21.3025L15.4643 24.874L7.1012 22.5228ZM-0.0416565 24.874V11.7787H4.72025V24.874H-0.0416565ZM14.1548 11.8382L9.09525 6.77872L10.7917 5.11206L14.1548 8.47515L20.9107 1.74896L22.5774 3.41563L14.1548 11.8382Z" fill="black"/>
</g>
<defs>
<clipPath id="clip0_31_266">
<rect width="26" height="26" fill="white"/>
</clipPath>
</defs>
</svg>
