<svg width="68" height="35" viewBox="0 0 68 35" fill="none" xmlns="http://www.w3.org/2000/svg">
<path fill-rule="evenodd" clip-rule="evenodd" d="M30.3803 0H21.6094L23.9428 4.52083H52.9427C54.5156 4.52083 55.7239 4.88021 56.5729 5.60417C57.4218 6.32813 57.8438 7.34896 57.8438 8.67708C57.8438 10.026 57.4011 11.0625 56.5209 11.7864C55.6355 12.5052 54.3697 12.8697 52.7239 12.8697H30.177V22.0781L18.8072 0H15.7553L0 30.8697H5.11979L9.11458 23.026H25.4895L29.5156 30.8697H35.0416V28.8437C35.2916 28.8958 35.5416 28.9479 35.7916 28.9947C36.1718 29.0625 36.4323 29.2395 36.5782 29.5885C36.6459 29.7447 36.7448 29.8958 36.8073 30.0572C37.8126 32.4895 39.8282 33.4687 42.2709 33.7864C43.3125 33.9218 44.3593 33.9843 45.3802 34.2656C45.5572 34.3229 45.8072 34.4322 45.9427 34.2343C46.125 33.9843 45.8229 33.8541 45.7188 33.677C44.3855 31.2812 42.1771 30.1822 39.6146 29.6197C39.4688 29.5885 39.3333 29.5312 39.1927 29.4427C41.0729 29.5364 42.9323 29.3802 44.7761 29.0729C45.1667 29.0052 45.3854 29.2395 45.6041 29.4739C46.7656 30.7395 48.2083 31.5208 49.8177 32.1145C51.4843 32.7447 53.1094 32.5625 54.7396 32.052C56.698 31.4322 58.2812 30.1093 60.0938 29.2239C60.2188 29.1666 60.3802 29.0677 60.3177 28.8802C60.2604 28.7239 60.1094 28.802 59.9948 28.8072C58.7761 28.8854 57.6146 28.5312 56.4532 28.2656C54.6719 27.8697 52.8906 27.776 51.1093 28.2239C50.5156 28.375 50.0156 28.7031 49.4739 28.9635C48.3437 29.5 47.1928 29.8541 45.9375 28.9218C49.349 28.1927 52.4896 27.0312 55.4323 25.3645C57.0365 24.302 58.6354 23.2291 59.9218 21.7812C60.2083 21.4583 60.6406 21.4322 61.0052 21.3072C64.1874 20.2552 66.026 17.901 67.2188 14.9427C67.5572 14.1093 67.7501 13.2291 67.8438 12.3333C67.8646 12.1406 67.974 11.927 67.7448 11.7916C67.6719 11.7447 67.5989 11.7239 67.5312 11.7239H67.5156C67.3802 11.7291 67.2501 11.802 67.1355 11.901C67.0001 12.0208 66.8698 12.1354 66.7501 12.2552C66.3438 12.677 65.8854 13 65.302 13.1354C64.7812 13.2604 64.349 13.5677 63.9323 13.8854C61.5626 15.7291 59.8958 18.026 59.2552 20.9895C59.1614 21.4479 58.9218 21.802 58.6302 22.1562C57.2031 23.9375 55.2917 25.0572 53.2709 26.0312C50.4636 27.3958 47.5052 28.3177 44.4218 28.7291C41.2343 29.1562 38.0833 29.1666 35.0416 28.3593V17.3854H53.2343C56.1145 17.3854 58.4376 16.5677 60.2032 14.9322C61.9688 13.2916 62.8541 11.1822 62.8541 8.60417C62.8541 5.88021 61.9636 3.76563 60.1875 2.26042C58.4063 0.755209 55.9166 0 52.7239 0H30.3803ZM17.3178 7.11979L23.3438 18.9427H11.2188L17.3178 7.11979ZM57.2916 17.4791C55.4635 18.4843 53.4687 19.2291 52.1041 20.9479C51.3124 21.9583 50.8073 23.125 50.1562 24.2187C49.5626 25.2291 49.1094 26.3177 48.3125 27.2031C48.2553 27.276 48.2083 27.3645 48.1614 27.4375C48.2135 27.6041 48.3282 27.6458 48.4532 27.6041C50.6615 26.802 52.8593 25.9895 54.5729 24.276C55.5729 23.2812 56.25 22.1458 56.4479 20.7187C56.5885 19.6875 56.8073 18.651 57.4896 17.7968C57.5626 17.7031 57.6822 17.6145 57.5677 17.4791C57.5312 17.4427 57.4948 17.427 57.4584 17.427C57.4011 17.427 57.3437 17.4531 57.2916 17.4791ZM50.8177 19.8437H50.8125C50.7344 19.8437 50.6615 19.8958 50.5886 19.9375C49.0834 20.875 47.4011 21.3489 45.7032 21.7552C43.724 22.2343 42.2031 23.4062 40.8541 24.8489C40.5885 25.1458 40.3281 25.4479 40.0729 25.7552C39.5677 26.3593 38.9844 26.8541 38.2084 27.0729C38.0365 27.125 37.8333 27.2031 37.8177 27.375C37.7864 27.5885 37.9791 27.7031 38.1614 27.8125C38.8281 28.2083 39.5886 28.25 40.3282 28.3333C40.7448 28.3802 41.1771 28.3229 41.4375 28.3177C43.8907 27.8489 46.0521 27.151 47.6146 25.2656C47.8698 24.9531 48.0937 24.625 48.2916 24.2812C49.1093 22.9375 49.7864 21.5156 50.8593 20.3385C50.9531 20.2343 51.0677 20.1093 50.9688 19.9479C50.9218 19.8697 50.8697 19.8437 50.8177 19.8437ZM66.9688 20.7291H66.9635C66.901 20.7291 66.8386 20.7604 66.7812 20.7968C65.651 21.4687 64.3697 21.5885 63.1041 21.7239C61.2031 21.9218 59.5469 22.6822 58.0782 23.8802C57.2865 24.526 56.4688 25.151 55.4323 25.3697C55.2813 25.6302 55.224 25.8541 55.5886 26.0208C56.8334 26.5677 58.1198 27.0416 59.4948 26.8958C60.8021 26.7604 62.0261 26.2916 63.0886 25.4947C64.6042 24.3593 65.7708 22.8958 66.9166 21.4114C66.9947 21.3125 67.0678 21.2031 67.1094 21.0885C67.1407 21.0052 67.1563 20.875 67.1094 20.8072C67.073 20.75 67.026 20.7291 66.9791 20.7291H66.9688Z" fill="#F8E7BF"/>
</svg>
