<svg width="24" height="24" viewBox="0 0 24 24" fill="none" xmlns="http://www.w3.org/2000/svg">
<path d="M15.4875 19.5C15.4175 20.313 15.2175 21.154 14.7915 21.86C14.1995 22.84 13.2035 23.5 11.7495 23.5C10.2955 23.5 9.3005 22.84 8.7095 21.86C8.2825 21.154 8.0825 20.313 8.0125 19.5H5.1165C4.5205 19.5 3.9875 19.352 3.5905 19.003C3.1875 18.647 3.0245 18.172 3.0025 17.723C2.9625 16.877 3.4075 15.981 3.9785 15.414C4.6585 14.738 4.9635 13.812 5.1165 12.665C5.1925 12.094 5.2275 11.496 5.2625 10.869L5.2665 10.803C5.3005 10.207 5.3355 9.583 5.4105 8.981C5.5665 7.74 5.9105 6.445 6.9185 5.481C7.9325 4.508 9.4805 4 11.7495 4C14.0185 4 15.5675 4.509 16.5815 5.48C17.5895 6.445 17.9335 7.74 18.0895 8.981C18.1645 9.583 18.1995 10.207 18.2335 10.803L18.2365 10.869C18.2725 11.496 18.3065 12.094 18.3835 12.665C18.5365 13.812 18.8415 14.738 19.5215 15.415C20.1095 15.999 20.5495 16.9 20.4965 17.749C20.4685 18.197 20.2965 18.665 19.8935 19.012C19.4975 19.354 18.9705 19.5 18.3835 19.5H15.4875Z" fill="black"/>
</svg>
