<svg width="300" height="300" viewBox="0 0 300 300" fill="none" xmlns="http://www.w3.org/2000/svg">
<rect width="300" height="300" fill="#414141"/>
<path d="M100.121 107.18C100.121 94.0305 105.345 81.4196 114.643 72.1216C123.941 62.8236 136.551 57.6 149.701 57.6C162.85 57.6 175.461 62.8236 184.759 72.1216C194.057 81.4196 199.281 94.0305 199.281 107.18C199.281 120.329 194.057 132.94 184.759 142.238C175.461 151.536 162.85 156.76 149.701 156.76C136.551 156.76 123.941 151.536 114.643 142.238C105.345 132.94 100.121 120.329 100.121 107.18ZM147.959 169.788C148.33 169.732 148.705 169.701 149.08 169.694H150.322C150.701 169.694 151.075 169.725 151.443 169.788L214.344 180.851L214.672 180.92C226.261 183.593 238.712 190.948 241.135 205.236L241.169 205.486L242.152 213.048V213.065C244.429 230.388 230.693 242.986 214.474 242.986C214.116 242.979 213.759 242.95 213.405 242.899H84.9279C68.7089 242.899 54.9645 230.293 57.2494 212.962L58.2324 205.469L58.2755 205.21C60.6898 191.181 73.2443 183.412 84.8072 180.903L85.0573 180.851L147.959 169.788Z" fill="#8F8F8F"/>
</svg>
